<?xml version="1.0" encoding="utf-8"?>
<!-- Generator: Adobe Illustrator 24.2.3, SVG Export Plug-In . SVG Version: 6.00 Build 0)  -->
<svg version="1.1" id="Capa_1" xmlns="http://www.w3.org/2000/svg" xmlns:xlink="http://www.w3.org/1999/xlink" x="0px" y="0px"
	 viewBox="0 0 708.69 112.34" style="enable-background:new 0 0 708.69 112.34;" xml:space="preserve">
<style type="text/css">
	.st0{clip-path:url(#SVGID_2_);fill:#B2DEED;}
	.st1{clip-path:url(#SVGID_2_);fill:#E1F2FA;}
	.st2{clip-path:url(#SVGID_4_);fill:#B2DEED;}
	.st3{clip-path:url(#SVGID_4_);fill:#E1F2FA;}
	.st4{fill:#066AB1;}
	.st5{fill:#00B2E4;}
	.st6{fill:#198CCD;}
	.st7{fill:#1067AE;}
	.st8{fill:#157FC3;}
	.st9{fill:#1299D6;}
	.st10{fill:#42B2DF;}
	.st11{fill:#AFDEF2;}
	.st12{fill:none;}
	.st13{clip-path:url(#SVGID_6_);fill:#066AB1;}
</style>
<g>
	<path class="st4" d="M374.91,91.06V19.6c0-0.46,0.38-0.83,0.84-0.83h0.59c0.46,0,0.83,0.37,0.83,0.83v71.46
		c0,0.46-0.37,0.84-0.83,0.84h-0.59C375.29,91.89,374.91,91.52,374.91,91.06"/>
	<path class="st5" d="M102.46,59.15c1.64,3.71,2.93,9.73,3.09,12.22c0.13,2.13,0.08,4.19-0.12,6.16c-0.91,1.79-1.93,3.52-3.06,5.18
		c0.11-1.34,0.13-2.78,0.06-4.35c-0.16-3.57-1.26-8.84-2.62-12.97c-2.33-7.06-3.95-15.92-5.18-22.86c0.41,0.75,0.84,1.51,1.27,2.29
		C98.45,49.35,99.97,53.52,102.46,59.15"/>
	<path class="st5" d="M88.83,68.19c4.98,9.05,6.01,19.49-2.11,21.25c-1.18,0.26-2.26,0.03-3.28-0.57
		C89.69,87.23,91.19,78.78,88.83,68.19"/>
	<path class="st6" d="M88.83,68.19c-1.48-2.7-3.32-5.28-5.37-7.47c-4.27-4.57-7.98-9.18-11.4-18c-1.68-4.35-3.45-8.57-5.37-12.49
		C78.29,40.98,86.12,56,88.83,68.19"/>
	<path class="st6" d="M92.77,32.91c-0.72-2.69-2.8-10.94-8.92-18.27c-3.2-3.75-4.85-5.26-8.48-6.05c-2.45-0.53-6.08,1.17-6.08,1.17
		s1.2,0.89,2.38,1.82c1.46,1.25,2.92,2.58,4.48,4.02c3.53,3.25,8.56,10.09,11.02,13.98c2.8,4.42,4.95,8.41,7.46,12.93
		C93.9,38.36,93.3,34.9,92.77,32.91"/>
	<path class="st7" d="M110.06,51.73c-1.82-16.12-11.79-29.33-25.33-36c5.44,7.04,7.36,14.62,8.05,17.18c0,0,0,0,0,0
		c0.16,0.59,0.32,1.32,0.5,2.16c0.19,0.91,0.38,1.95,0.59,3.1c0.04,0.22,0.08,0.44,0.12,0.67c0.05,0.27,0.1,0.54,0.15,0.82
		c0.16,0.9,0.33,1.85,0.5,2.84c0.41,0.75,0.84,1.51,1.27,2.29c2.54,4.54,4.06,8.72,6.55,14.35c1.64,3.71,2.93,9.73,3.09,12.22
		c0.13,2.13,0.08,4.19-0.12,6.16C109.33,69.83,111.1,60.94,110.06,51.73"/>
	<path class="st8" d="M78.4,100.56c-3.2-3-5.9-7.53-8.75-11.96c4.86,4,9.22,8.24,13.37,10.21C81.52,99.47,79.98,100.06,78.4,100.56"
		/>
	<path class="st7" d="M69.65,88.6c2.85,4.43,5.55,8.95,8.75,11.96c-2.8,0.89-5.72,1.51-8.74,1.86
		c-13.86,1.57-26.98-3.23-36.44-12.06c2.66-3.1,5.16-6.23,7.62-8.86c3.1-1.16,6.07-1.89,9.12-1.92
		C57.52,79.52,65.03,82.04,69.65,88.6"/>
	<path class="st5" d="M51.72,74.67c8.23-0.29,13.28,6.69,17.93,13.93c-4.47-6.38-12.13-9.08-19.69-9.02
		c-3.05,0.02-6.02,0.76-9.12,1.92C44.44,77.62,47.96,74.8,51.72,74.67"/>
	<path class="st6" d="M43.44,61.9c2.13-1.01,4.25-1.85,6.51-2.39c21.37-5.2,25.26,24.45,33.49,29.36c-0.03,0.01-0.05,0.01-0.08,0.02
		c-8.64,2.17-14.27-28.4-35.61-27.41C46.25,61.55,44.82,61.7,43.44,61.9"/>
	<path class="st6" d="M29.58,86.54c-2.24,1.05-5.88,3.16-5.88,3.16c1.74,2.23,5.5,4.1,9.52,0.65c2.66-3.1,5.16-6.23,7.62-8.86
		C37.34,82.79,33.69,84.62,29.58,86.54"/>
	<path class="st5" d="M19.86,67.24c-4.75,0.94-13.11,0.95-13.11,0.95c0.03,0.12,2.01,8.45,14.66,4.32
		c9.58-3.2,15.8-7.65,22.02-10.61C36.34,62.97,30.34,65.62,19.86,67.24"/>
	<path class="st7" d="M88.83,68.19c-1.48-2.7-3.32-5.28-5.37-7.47c-4.27-4.57-7.98-9.18-11.4-18c-1.68-4.35-3.45-8.57-5.37-12.49
		c-0.19-0.18-0.39-0.35-0.58-0.53c-0.19-0.17-0.39-0.35-0.58-0.52c-0.18-0.16-0.36-0.32-0.54-0.47c-0.02-0.02-0.05-0.04-0.07-0.06
		C56.39,21.25,45.84,15,45.84,15c-17.76,7.91-29.17,26.66-26.87,47.01c0.2,1.78,0.5,3.53,0.9,5.23c10.48-1.62,16.47-4.27,23.58-5.34
		c2.13-1.01,4.25-1.84,6.51-2.39c21.37-5.2,25.26,24.45,33.49,29.36C89.69,87.23,91.19,78.78,88.83,68.19"/>
	<path class="st5" d="M64.91,28.65c0.02,0.02,0.05,0.04,0.07,0.06c0.06,0.05,0.13,0.11,0.19,0.17c0.51,0.45,1.02,0.9,1.51,1.36
		c-3.11-6.36-6.61-11.92-10.75-15.89c-0.72-0.69-1.51-1.36-2.34-2c-3.5-2.8-8.95-5.91-13.45-5.9c-3.71-0.22-7.72,2.86-7.72,2.86
		s5.89,1.16,13.42,5.69C45.84,15,56.39,21.25,64.91,28.65"/>
	<path class="st7" d="M136.05,26.63c-2.32,0-4.82,1.01-6.54,2.26l-0.12-1.78h-0.02c-2.99,0.66-5.22,1.75-6.86,2.9l-0.02,0.02v26.81
		h7.37V35.25c1.37-1.61,3.09-2.56,5.59-2.56c4.16,0,5.89,2.62,5.89,8.14v15.99h7.37V40.84C148.72,32.46,145.33,26.63,136.05,26.63"
		/>
	<path class="st7" d="M324.33,26.63c-2.32,0-4.82,1.01-6.54,2.26l-0.12-1.78h-0.02c-2.99,0.66-5.22,1.75-6.86,2.9l-0.02,0.02v26.81
		h7.37V35.25c1.37-1.61,3.09-2.56,5.59-2.56c4.16,0,5.89,2.62,5.89,8.14v15.99H337V40.84C337,32.46,333.61,26.63,324.33,26.63"/>
	<path class="st7" d="M203.76,56.84h0.02c2.99-0.66,5.22-1.75,6.86-2.9c0.01,0,0.02-0.01,0.02-0.01V27.11h-7.37v21.64
		c-1.37,1.6-3.15,2.5-5.59,2.5c-4.16,0-5.89-2.62-5.89-8.15V27.11h-7.37V43.1c0,8.38,3.33,14.33,12.6,14.33
		c2.32,0,4.88-1.07,6.6-2.38L203.76,56.84z"/>
	<path class="st7" d="M268.17,56.84h0.02c2.99-0.66,5.22-1.75,6.86-2.9c0.01,0,0.02-0.01,0.02-0.01V27.11h-7.37v21.64
		c-1.37,1.6-3.15,2.5-5.59,2.5c-4.16,0-5.89-2.62-5.89-8.15V27.11h-7.37V43.1c0,8.38,3.33,14.33,12.6,14.33
		c2.32,0,4.87-1.07,6.6-2.38L268.17,56.84z"/>
	<path class="st7" d="M244.06,30.03l-0.02-0.02c-1.56-1.1-3.66-2.13-6.43-2.8l-0.56,1.61c-2.02-1.37-4.04-2.2-7.31-2.2
		c-9.51,0-14.57,7.07-14.57,15.4c0,8.32,5.05,15.4,14.57,15.4c3.09,0,5-0.71,6.96-2.02v11.6h7.37 M230.2,51.37
		c-4.76,0-7.49-3.81-7.49-9.33s2.74-9.33,7.49-9.33c4.76,0,6.84,3.81,6.84,9.33S234.96,51.37,230.2,51.37"/>
	<path class="st7" d="M298.63,12.32l-10.96,5.34v4.4l10.26-3.35C298.44,17,298.76,14.89,298.63,12.32"/>
	<path class="st7" d="M305.09,49.02c-2.45,1.27-6.25,2.35-8.98,2.35c-3.92,0-8.03-2.26-8.86-7.79h19.2c0.3-1.43,0.48-2.73,0.48-4.04
		c0-7.85-5.59-12.9-13.08-12.9c-9.16,0-14.27,7.14-14.27,15.4c0,8.32,5.35,15.4,16.11,15.4c3.47,0,6.46-0.76,8.65-1.84
		C304.91,53.79,305.19,51.74,305.09,49.02 M294.09,32.7c3.98,0,5.35,3.21,5.35,5.89h-12.01C288.14,35.19,290.28,32.7,294.09,32.7"/>
	<path class="st7" d="M178.41,49.02c-2.45,1.27-6.25,2.35-8.98,2.35c-3.92,0-8.03-2.26-8.86-7.79h19.2c0.3-1.43,0.48-2.73,0.48-4.04
		c0-7.85-5.59-12.9-13.08-12.9c-9.16,0-14.27,7.14-14.27,15.4c0,8.32,5.35,15.4,16.11,15.4c3.47,0,6.45-0.76,8.65-1.84
		C178.23,53.79,178.52,51.74,178.41,49.02 M167.41,32.7c3.98,0,5.35,3.21,5.35,5.89h-12.01C161.46,35.19,163.6,32.7,167.41,32.7"/>
	<path class="st4" d="M136.05,26.63c-2.32,0-4.82,1.01-6.54,2.26l-0.12-1.78h-0.02c-2.99,0.66-5.22,1.75-6.86,2.9l-0.02,0.02v26.81
		h7.37V35.25c1.37-1.61,3.09-2.56,5.59-2.56c4.16,0,5.89,2.62,5.89,8.14v15.99h7.37V40.84C148.72,32.46,145.33,26.63,136.05,26.63"
		/>
	<path class="st4" d="M324.33,26.63c-2.32,0-4.82,1.01-6.54,2.26l-0.12-1.78h-0.02c-2.99,0.66-5.22,1.75-6.86,2.9l-0.02,0.02v26.81
		h7.37V35.25c1.37-1.61,3.09-2.56,5.59-2.56c4.16,0,5.89,2.62,5.89,8.14v15.99H337V40.84C337,32.46,333.61,26.63,324.33,26.63"/>
	<path class="st4" d="M203.76,56.84h0.02c2.99-0.66,5.22-1.75,6.86-2.9c0.01,0,0.02-0.01,0.02-0.01V27.11h-7.37v21.64
		c-1.37,1.6-3.15,2.5-5.59,2.5c-4.16,0-5.89-2.62-5.89-8.15V27.11h-7.37V43.1c0,8.38,3.33,14.33,12.6,14.33
		c2.32,0,4.88-1.07,6.6-2.38L203.76,56.84z"/>
	<path class="st4" d="M268.17,56.84h0.02c2.99-0.66,5.22-1.75,6.86-2.9c0.01,0,0.02-0.01,0.02-0.01V27.11h-7.37v21.64
		c-1.37,1.6-3.15,2.5-5.59,2.5c-4.16,0-5.89-2.62-5.89-8.15V27.11h-7.37V43.1c0,8.38,3.33,14.33,12.6,14.33
		c2.32,0,4.87-1.07,6.6-2.38L268.17,56.84z"/>
	<path class="st4" d="M244.06,30.03l-0.02-0.02c-1.56-1.1-3.66-2.13-6.43-2.8l-0.56,1.61c-2.02-1.37-4.04-2.2-7.31-2.2
		c-9.51,0-14.57,7.07-14.57,15.4c0,8.32,5.05,15.4,14.57,15.4c3.09,0,5-0.71,6.96-2.02v11.6h7.37 M230.2,51.37
		c-4.76,0-7.49-3.81-7.49-9.33s2.74-9.33,7.49-9.33c4.76,0,6.84,3.81,6.84,9.33S234.96,51.37,230.2,51.37"/>
	<path class="st4" d="M298.63,12.32l-10.96,5.34v4.4l10.26-3.35C298.44,17,298.76,14.89,298.63,12.32"/>
	<path class="st4" d="M305.09,49.02c-2.45,1.27-6.25,2.35-8.98,2.35c-3.92,0-8.03-2.26-8.86-7.79h19.2c0.3-1.43,0.48-2.73,0.48-4.04
		c0-7.85-5.59-12.9-13.08-12.9c-9.16,0-14.27,7.14-14.27,15.4c0,8.32,5.35,15.4,16.11,15.4c3.47,0,6.46-0.76,8.65-1.84
		C304.91,53.79,305.19,51.74,305.09,49.02 M294.09,32.7c3.98,0,5.35,3.21,5.35,5.89h-12.01C288.14,35.19,290.28,32.7,294.09,32.7"/>
	<path class="st4" d="M178.41,49.02c-2.45,1.27-6.25,2.35-8.98,2.35c-3.92,0-8.03-2.26-8.86-7.79h19.2c0.3-1.43,0.48-2.73,0.48-4.04
		c0-7.85-5.59-12.9-13.08-12.9c-9.16,0-14.27,7.14-14.27,15.4c0,8.32,5.35,15.4,16.11,15.4c3.47,0,6.45-0.76,8.65-1.84
		C178.23,53.79,178.52,51.74,178.41,49.02 M167.41,32.7c3.98,0,5.35,3.21,5.35,5.89h-12.01C161.46,35.19,163.6,32.7,167.41,32.7"/>
	<rect x="171.35" y="66.35" class="st5" width="2.93" height="3.26"/>
	<path class="st5" d="M134.57,84.02c-1.27,0.62-2.66,0.97-4.16,0.97c-3.55,0-5.24-2.28-5.24-5.77c0-3.55,1.69-5.67,5.24-5.67
		c1.5,0,2.87,0.36,4.14,0.98l0.46-2.64c-0.94-0.52-2.51-0.95-4.92-0.95c-5.31,0-7.92,3.62-7.92,8.28c0,4.46,2.64,8.34,7.95,8.34
		c1.85,0,3.05-0.31,3.94-0.71C134.56,85.69,134.57,84.27,134.57,84.02"/>
	<path class="st5" d="M160.85,70.95c-2.04,0-3.88,1.05-4.74,2.6l-0.32-2.25c-0.26,0.06-1.42,0.34-2.29,0.97v22.85h2.93v-9.9
		c1.2,1.56,2.94,2.35,4.38,2.35c4.73,0,7.14-3.65,7.14-8.31C167.95,74.89,165.32,70.95,160.85,70.95 M160.49,84.96
		c-1.74,0-4.22-1.69-4.22-5.7c0-3.84,2.51-5.7,4.22-5.7c2.8,0,4.46,2.44,4.46,5.7C164.96,82.39,163.29,84.96,160.49,84.96"/>
	<path class="st5" d="M171.35,72.58v14.66h2.93V71.33C173.88,71.42,172.44,71.79,171.35,72.58"/>
	<path class="st5" d="M187.33,73.56v-2.23h-4.2v-4.08h-2.93v4.08h-2.18c-0.33,1.03-0.4,1.98-0.41,2.23h2.58v10.2
		c0,1.92,1.14,3.81,4.17,3.81h2.64l0.23-2.35h-0.75c-3.16,0-3.36-0.19-3.36-3.26v-8.41H187.33z"/>
	<path class="st5" d="M150.97,85.22c-1.69,0-1.82-1.07-1.82-3.36v-3.26c0-5.77-1.6-7.66-5.64-7.66c-2.09,0-4.07,0.66-5.35,1.62
		c0.28,0.54,0.7,1.26,1.25,1.87c1.27-0.7,2.33-0.89,3.31-0.89c2.25,0,3.49,0.65,3.49,3.68c-4.07,0.06-8.91,1.21-8.91,5.7
		c0,2.67,1.96,4.63,4.92,4.63c2.05,0,3.04-0.94,4.25-2.35c0.61,1.4,1.19,2.22,3.55,2.33c0.7-0.86,1.07-1.99,1.18-2.33H150.97z
		 M146.21,83.07c-0.6,1.12-1.87,2.15-3.43,2.15c-1.27,0-2.48-0.72-2.48-2.44c0-2.38,2.11-3.52,5.91-3.52V83.07z"/>
	<path class="st5" d="M203.48,85.22c-1.69,0-1.82-1.07-1.82-3.36v-3.26c0-5.77-1.6-7.66-5.64-7.66c-2.09,0-4.07,0.66-5.35,1.62
		c0.28,0.54,0.7,1.26,1.25,1.87c1.28-0.7,2.33-0.89,3.31-0.89c2.25,0,3.49,0.65,3.49,3.68c-4.07,0.06-8.91,1.21-8.91,5.7
		c0,2.67,1.96,4.63,4.92,4.63c2.05,0,3.04-0.94,4.25-2.35c0.61,1.4,1.19,2.22,3.55,2.33c0.7-0.86,1.07-1.99,1.18-2.33H203.48z
		 M198.73,83.07c-0.6,1.12-1.87,2.15-3.43,2.15c-1.27,0-2.48-0.72-2.48-2.44c0-2.38,2.11-3.52,5.91-3.52V83.07z"/>
	<path class="st5" d="M211.34,85.22c-2.05-0.03-2.36-0.54-2.36-3.19V66.35h-2.93v17.37c0,1.92,1.04,3.83,4.11,3.84
		C210.8,86.74,211.18,85.71,211.34,85.22"/>
	<rect x="171.35" y="66.35" class="st9" width="2.93" height="3.26"/>
	<path class="st9" d="M134.57,84.02c-1.27,0.62-2.66,0.97-4.16,0.97c-3.55,0-5.24-2.28-5.24-5.77c0-3.55,1.69-5.67,5.24-5.67
		c1.5,0,2.87,0.36,4.14,0.98l0.46-2.64c-0.94-0.52-2.51-0.95-4.92-0.95c-5.31,0-7.92,3.62-7.92,8.28c0,4.46,2.64,8.34,7.95,8.34
		c1.85,0,3.05-0.31,3.94-0.71C134.56,85.69,134.57,84.27,134.57,84.02"/>
	<path class="st9" d="M160.85,70.95c-2.04,0-3.88,1.05-4.74,2.6l-0.32-2.25c-0.26,0.06-1.42,0.34-2.29,0.97v22.85h2.93v-9.9
		c1.2,1.56,2.94,2.35,4.38,2.35c4.73,0,7.14-3.65,7.14-8.31C167.95,74.89,165.32,70.95,160.85,70.95 M160.49,84.96
		c-1.74,0-4.22-1.69-4.22-5.7c0-3.84,2.51-5.7,4.22-5.7c2.8,0,4.46,2.44,4.46,5.7C164.96,82.39,163.29,84.96,160.49,84.96"/>
	<path class="st9" d="M171.35,72.58v14.66h2.93V71.33C173.88,71.42,172.44,71.79,171.35,72.58"/>
	<path class="st9" d="M187.33,73.56v-2.23h-4.2v-4.08h-2.93v4.08h-2.18c-0.33,1.03-0.4,1.98-0.41,2.23h2.58v10.2
		c0,1.92,1.14,3.81,4.17,3.81h2.64l0.23-2.35h-0.75c-3.16,0-3.36-0.19-3.36-3.26v-8.41H187.33z"/>
	<path class="st9" d="M150.97,85.22c-1.69,0-1.82-1.07-1.82-3.36v-3.26c0-5.77-1.6-7.66-5.64-7.66c-2.09,0-4.07,0.66-5.35,1.62
		c0.28,0.54,0.7,1.26,1.25,1.87c1.27-0.7,2.33-0.89,3.31-0.89c2.25,0,3.49,0.65,3.49,3.68c-4.07,0.06-8.91,1.21-8.91,5.7
		c0,2.67,1.96,4.63,4.92,4.63c2.05,0,3.04-0.94,4.25-2.35c0.61,1.4,1.19,2.22,3.55,2.33c0.7-0.86,1.07-1.99,1.18-2.33H150.97z
		 M146.21,83.07c-0.6,1.12-1.87,2.15-3.43,2.15c-1.27,0-2.48-0.72-2.48-2.44c0-2.38,2.11-3.52,5.91-3.52V83.07z"/>
	<path class="st9" d="M203.48,85.22c-1.69,0-1.82-1.07-1.82-3.36v-3.26c0-5.77-1.6-7.66-5.64-7.66c-2.09,0-4.07,0.66-5.35,1.62
		c0.28,0.54,0.7,1.26,1.25,1.87c1.28-0.7,2.33-0.89,3.31-0.89c2.25,0,3.49,0.65,3.49,3.68c-4.07,0.06-8.91,1.21-8.91,5.7
		c0,2.67,1.96,4.63,4.92,4.63c2.05,0,3.04-0.94,4.25-2.35c0.61,1.4,1.19,2.22,3.55,2.33c0.7-0.86,1.07-1.99,1.18-2.33H203.48z
		 M198.73,83.07c-0.6,1.12-1.87,2.15-3.43,2.15c-1.27,0-2.48-0.72-2.48-2.44c0-2.38,2.11-3.52,5.91-3.52V83.07z"/>
	<path class="st9" d="M211.34,85.22c-2.05-0.03-2.36-0.54-2.36-3.19V66.35h-2.93v17.37c0,1.92,1.04,3.83,4.11,3.84
		C210.8,86.74,211.18,85.71,211.34,85.22"/>
	<path class="st4" d="M454.68,19.3c0.09,0.05,0.19,0.11,0.28,0.17l1.98-3.01l-0.03-1.06l-0.94,0.5l-1.62,3.22
		C454.45,19.17,454.57,19.23,454.68,19.3"/>
	<path class="st4" d="M462.85,26.71l-3.6,0.21c0.01,0.13,0.01,0.25,0.01,0.38c0,0.11,0,0.22-0.01,0.32l3.6,0.21l0.9-0.55
		L462.85,26.71z"/>
	<path class="st4" d="M458.57,23.78c0.05,0.12,0.09,0.24,0.13,0.36c0.04,0.11,0.07,0.22,0.11,0.31l3.44-1.04l0.66-0.82l-1.04-0.23
		L458.57,23.78z"/>
	<path class="st4" d="M453.53,18.74l1.42-3.31l-0.22-1.04l-0.85,0.65l-1.03,3.46c0.12,0.04,0.25,0.08,0.37,0.13
		C453.32,18.65,453.43,18.69,453.53,18.74"/>
	<path class="st4" d="M460.54,36.1l-0.32-1.01l-2.9-2.15c-0.08,0.1-0.16,0.2-0.24,0.3c-0.07,0.08-0.14,0.17-0.21,0.25l2.62,2.47
		L460.54,36.1z"/>
	<path class="st4" d="M458.84,37.79l-0.14-1.05l-2.48-2.62c-0.09,0.09-0.19,0.17-0.3,0.25l-0.04,0.04l-0.21,0.16l2.15,2.89
		L458.84,37.79z"/>
	<path class="st4" d="M451.99,18.26l0.82-3.51l-0.38-0.98l-0.72,0.79l-0.42,3.58c0.13,0.02,0.26,0.04,0.38,0.06
		C451.78,18.21,451.89,18.23,451.99,18.26"/>
	<path class="st4" d="M459.05,25.32c0.02,0.11,0.04,0.22,0.07,0.32l0.01,0.08c0.02,0.09,0.03,0.2,0.05,0.3l3.57-0.42l0.79-0.71
		l-0.98-0.39L459.05,25.32z"/>
	<path class="st4" d="M458.03,22.7c0,0,0.11,0.18,0.16,0.28l3.21-1.62l0.5-0.92l-1.07-0.06l-3.01,1.99
		C457.9,22.47,457.96,22.58,458.03,22.7"/>
	<path class="st4" d="M444.37,34.57c-0.09-0.07-0.17-0.14-0.26-0.22c-0.1-0.07-0.19-0.16-0.29-0.25l-2.47,2.62l-0.14,1.05l1.01-0.34
		L444.37,34.57z"/>
	<path class="st4" d="M462.75,28.95l-3.57-0.42c-0.02,0.11-0.04,0.22-0.06,0.32l0,0.06c-0.02,0.11-0.04,0.22-0.06,0.33l3.51,0.81
		l0.98-0.38L462.75,28.95z"/>
	<path class="st4" d="M461.9,34.14l-0.49-0.95l-3.22-1.61c-0.05,0.11-0.12,0.22-0.18,0.33c-0.06,0.1-0.11,0.19-0.18,0.28l3.03,1.97
		L461.9,34.14z"/>
	<path class="st4" d="M455.88,20.14l0.25,0.22c0,0,0.06,0.06,0.09,0.09l2.47-2.63l0.15-1.04l-1.01,0.32l-2.15,2.89
		C455.74,20.04,455.8,20.09,455.88,20.14"/>
	<path class="st4" d="M457.11,21.37c0.07,0.08,0.14,0.17,0.21,0.26l2.88-2.15l0.34-1l-1.06,0.14l-2.62,2.47
		C456.94,21.17,457.03,21.27,457.11,21.37"/>
	<path class="st4" d="M462.27,31.13l-3.45-1.03c-0.04,0.12-0.08,0.24-0.13,0.36c-0.03,0.1-0.07,0.21-0.11,0.3l3.3,1.42l1.04-0.21
		L462.27,31.13z"/>
	<path class="st4" d="M440.96,28.99l-0.02-0.14c-0.02-0.11-0.04-0.22-0.05-0.33l-3.57,0.43l-0.79,0.7l0.99,0.4l3.5-0.83
		C441,29.14,440.98,29.06,440.96,28.99"/>
	<path class="st4" d="M440.81,27.63V27.3c0-0.13,0-0.25,0-0.38l-3.6-0.21l-0.9,0.57l0.9,0.55L440.81,27.63z"/>
	<path class="st4" d="M440.89,26.03c0.02-0.11,0.03-0.22,0.05-0.33l0.03-0.16c0,0,0.03-0.14,0.04-0.22l-3.5-0.82l-0.99,0.41
		l0.79,0.7L440.89,26.03z"/>
	<path class="st4" d="M441.48,30.76l-0.12-0.29c-0.05-0.13-0.08-0.26-0.12-0.37l-3.45,1.03l-0.65,0.85l1.04,0.2L441.48,30.76z"/>
	<path class="st4" d="M443.18,33.48c-0.07-0.08-0.15-0.17-0.22-0.25c-0.08-0.1-0.16-0.2-0.24-0.3l-2.89,2.15l-0.33,1.01l1.05-0.15
		L443.18,33.48z"/>
	<path class="st4" d="M441.24,24.45c0.01-0.03,0.02-0.05,0.02-0.05c0.03-0.1,0.06-0.17,0.06-0.17c0.07-0.21,0.11-0.32,0.17-0.45
		l-3.32-1.42l-1.04,0.23l0.66,0.82L441.24,24.45z"/>
	<path class="st4" d="M444.11,38.65l1.63-3.21c-0.1-0.05-0.19-0.11-0.29-0.16c-0.1-0.05-0.19-0.11-0.29-0.17l-0.03-0.02l-1.98,3
		l0.04,1.06L444.11,38.65z"/>
	<path class="st4" d="M442.22,32.19c-0.06-0.08-0.12-0.18-0.17-0.28l-0.1-0.19c-0.03-0.05-0.05-0.1-0.09-0.15l-3.21,1.61l-0.5,0.95
		l1.06,0.02L442.22,32.19z"/>
	<path class="st4" d="M443.83,20.44c0.08-0.08,0.17-0.15,0.25-0.22c0.1-0.08,0.2-0.15,0.3-0.23l-2.15-2.89l-1.02-0.32l0.15,1.04
		L443.83,20.44z"/>
	<polygon class="st4" points="445.75,39.85 446.12,36.81 445.12,39.12 445.35,40.17 	"/>
	<polygon class="st4" points="454.36,39.88 454.72,40.17 454.95,39.12 454,36.93 	"/>
	<path class="st4" d="M445.39,19.3c0.11-0.06,0.22-0.13,0.33-0.19l-1.62-3.22l-0.95-0.5l-0.02,1.06l1.97,3.01
		C445.2,19.41,445.29,19.35,445.39,19.3"/>
	<path class="st4" d="M446.85,18.61c0.12-0.04,0.25-0.08,0.37-0.12l-1.03-3.45l-0.85-0.65l-0.22,1.04l1.42,3.31
		C446.54,18.73,446.75,18.65,446.85,18.61"/>
	<path class="st4" d="M456.89,39.15l0.04-1.06l-1.98-3c-0.11,0.06-0.21,0.13-0.32,0.19c-0.1,0.06-0.19,0.11-0.29,0.16l1.63,3.21
		L456.89,39.15z"/>
	<path class="st4" d="M448.4,18.19c0.12-0.02,0.25-0.04,0.38-0.06l-0.42-3.58l-0.72-0.79l-0.39,0.98l0.82,3.5
		C448.19,18.23,448.29,18.21,448.4,18.19"/>
	<path class="st4" d="M442.74,21.62c0.07-0.09,0.14-0.18,0.22-0.26c0.07-0.09,0.16-0.19,0.24-0.28l-2.62-2.47l-1.06-0.14l0.33,1.01
		L442.74,21.62z"/>
	<path class="st4" d="M441.87,22.97c0,0,0.05-0.1,0.09-0.15l0.07-0.12c0.07-0.12,0.14-0.23,0.2-0.34l-3.01-1.99l-1.07,0.05
		l0.51,0.93L441.87,22.97z"/>
	<path class="st4" d="M450,18.05c0.13,0,0.25,0,0.38,0l0.22-3.59l-0.57-0.9l-0.56,0.9l0.21,3.59
		C449.78,18.05,449.89,18.05,450,18.05"/>
	<polygon class="st4" points="428.55,96.59 429.37,96.71 429.1,95.76 	"/>
	<path class="st4" d="M425.41,94.85l-0.34-0.1l-0.39,1.33l0.35,0.11c0.28,0.08,0.51,0.08,0.69,0c0.18-0.08,0.3-0.22,0.37-0.44
		c0.05-0.2,0.03-0.39-0.09-0.55C425.87,95.04,425.68,94.93,425.41,94.85"/>
	<path class="st4" d="M433.15,96.05c-0.15-0.13-0.37-0.2-0.66-0.2l-0.35,0l-0.03,1.39l0.37,0.01c0.29,0,0.51-0.06,0.66-0.17
		c0.15-0.12,0.24-0.3,0.24-0.52C433.38,96.35,433.31,96.18,433.15,96.05"/>
	<path class="st4" d="M438.1,96.08l-0.35-0.03l-0.15,1.38l0.37,0.04c0.28,0.03,0.51-0.01,0.67-0.11c0.17-0.11,0.25-0.27,0.28-0.51
		c0.03-0.2-0.03-0.38-0.18-0.51C438.59,96.2,438.37,96.12,438.1,96.08"/>
	<path class="st4" d="M469.71,95.87c-0.14-0.12-0.32-0.18-0.55-0.17c-0.23,0.01-0.41,0.09-0.53,0.24c-0.12,0.16-0.17,0.34-0.15,0.59
		c0.02,0.24,0.09,0.43,0.24,0.55c0.14,0.13,0.33,0.19,0.55,0.17l0.1-0.01l0.05-0.03c0.13-0.1,0.24-0.17,0.34-0.24l0.05,0.04
		c0.12-0.15,0.17-0.35,0.15-0.58C469.94,96.19,469.86,96,469.71,95.87"/>
	<path class="st4" d="M436.85,64.09c0.09-0.09,0.1-0.25,0-0.35c-0.09-0.1-0.25-0.1-0.35,0c-0.1,0.09-0.1,0.25-0.01,0.35
		C436.6,64.19,436.75,64.19,436.85,64.09"/>
	<path class="st4" d="M435.08,65.84c0.1-0.1,0.1-0.26,0-0.35c-0.09-0.1-0.26-0.1-0.35,0c-0.1,0.09-0.1,0.26-0.01,0.35
		C434.83,65.94,434.99,65.94,435.08,65.84"/>
	<path class="st4" d="M435.96,64.99c0.09-0.1,0.1-0.26,0-0.35c-0.1-0.1-0.26-0.1-0.35,0c-0.1,0.09-0.1,0.25-0.01,0.35
		C435.7,65.08,435.87,65.08,435.96,64.99"/>
	<path class="st4" d="M434.2,66.72c0.1-0.09,0.1-0.25,0-0.35c-0.1-0.09-0.25-0.09-0.35,0c-0.09,0.1-0.1,0.26,0,0.35
		C433.94,66.83,434.1,66.83,434.2,66.72"/>
	<path class="st4" d="M437.74,63.22c0.1-0.1,0.1-0.26,0-0.35c-0.09-0.1-0.25-0.1-0.35,0c-0.09,0.09-0.09,0.25,0,0.35
		C437.48,63.31,437.64,63.31,437.74,63.22"/>
	<path class="st4" d="M438.62,62.34c0.1-0.09,0.1-0.26,0-0.35c-0.09-0.09-0.25-0.1-0.35,0c-0.1,0.1-0.1,0.26,0,0.35
		C438.37,62.44,438.52,62.44,438.62,62.34"/>
	<path class="st4" d="M446.72,62.12l-0.59-0.59v5.55l0.59-0.58V62.12z M446.54,66.41l-0.21,0.18v-4.57l0.21,0.19V66.41z"/>
	<polygon class="st4" points="453.34,66.5 453.93,67.08 453.93,61.53 453.34,62.12 	"/>
	<path class="st4" d="M446.82,66.7l-0.54,0.53h7.5l-0.54-0.53H446.82z M446.79,67.06l0.18-0.21h6.13l0.19,0.21H446.79z"/>
	<path class="st4" d="M462.14,62.91l-0.34-0.33c-1.16,1.8-1.01,3.41-0.2,4.69c0.99,1.57,3.11,1.99,5.21,0.12l-0.3-0.29
		c-0.18,0.09-0.46,0.03-0.66-0.18c-0.2-0.19-0.27-0.46-0.19-0.65l-0.31-0.29c-0.19,0.1-0.47,0.04-0.68-0.17
		c-0.2-0.2-0.27-0.47-0.19-0.66l-0.3-0.28c-0.19,0.11-0.48,0.05-0.7-0.17c-0.2-0.2-0.27-0.47-0.18-0.67l-0.28-0.28
		c-0.2,0.13-0.49,0.07-0.71-0.15C462.09,63.39,462.03,63.1,462.14,62.91 M463.51,64.89c0.2,0.15,0.45,0.21,0.65,0.14l0.16,0.16
		c-0.04,0.18,0.01,0.38,0.12,0.57c-0.77,0.59-1.59,1.21-2.44,1.83c-0.11-0.12-0.2-0.25-0.29-0.39c-0.15-0.23-0.27-0.47-0.36-0.7
		C462.22,65.81,462.97,65.26,463.51,64.89"/>
	<path class="st4" d="M475.82,57.56c-1.58,2.29-2.77,8.17-2.23,10.51C475.02,66.15,476.34,60.29,475.82,57.56"/>
	<path class="st4" d="M473.03,67.84c0.1-2.29,0.06-3.61,0.79-6.17c-0.02-0.94-0.46-3.32-0.71-4.26
		C472.28,58.94,472.46,66.74,473.03,67.84"/>
	<path class="st4" d="M473.95,68.18c2.03-1.87,3.76-6.19,3.7-9.92c-0.54,0.6-0.85,1.29-1.35,2.34
		C476.05,63.36,475.05,66.3,473.95,68.18"/>
	<path class="st4" d="M475.04,58.12c0.67-1.79,0.47-5.21-0.28-6.67C474.13,52.96,474.24,56.4,475.04,58.12"/>
	<path class="st4" d="M476.42,58.33c0.69-1.35,0.88-5.15,0.26-6.8C475.94,53.14,475.83,56.94,476.42,58.33"/>
	<path class="st4" d="M475.6,45.68c-0.67,1.63-0.64,5.43,0,6.8C476.24,51.11,476.29,47.31,475.6,45.68"/>
	<path class="st4" d="M467.18,76.33c0.9-2.26,1.99-4.06,3.69-6.17c0.32-1.08,0.37-2.11,0.32-2.93
		C468.76,69.23,467.21,75.23,467.18,76.33"/>
	<path class="st4" d="M467.44,76.97c1.92-1.39,4.96-5.74,5.62-8.43C470.99,70.07,468.12,74.83,467.44,76.97"/>
	<path class="st4" d="M458.47,79.61c-4.41,0.5-6.79,3.28-7.17,4.18l0.01,0.01c1.06-0.54,2.7-1.65,4.95-2.01
		C457.38,81.22,458.07,80.28,458.47,79.61"/>
	<path class="st4" d="M465.47,76.21c-2.22,0.57-5.35,3.86-6.29,5.61c0.68-0.83,4.61-3.82,5.45-4.07
		C465.23,77.06,465.34,76.69,465.47,76.21"/>
	<path class="st4" d="M451.32,84.9c2.1,1.01,5.99,0.98,7.97,0.14c-0.59-0.25-2.32-0.7-3.22-0.8
		C455.25,84.48,452.69,85.17,451.32,84.9"/>
	<path class="st4" d="M458.79,82.29c-2.64-0.18-6.09,1.17-7.67,2.13C453.57,84.54,457.55,83.19,458.79,82.29"/>
	<path class="st4" d="M467.55,77.64c1.42-0.23,5.94-3.3,7.2-7.6c-0.74,0.36-1.17,0.63-2.04,1.41
		C471.31,73.76,469.18,75.98,467.55,77.64"/>
	<path class="st4" d="M466.9,77.53c-2.28,0.29-6.38,3.08-7.51,4.7C461.35,82.06,465.5,79.36,466.9,77.53"/>
	<path class="st4" d="M459.5,82.59c4.03,0.06,7.2-2.32,8.06-3.24c-0.68,0.01-1.18,0.14-2.1,0.42
		C463.78,81.02,461.57,81.98,459.5,82.59"/>
	<path class="st4" d="M427.36,71.45c-0.87-0.78-1.3-1.05-2.04-1.41c1.26,4.3,5.77,7.37,7.2,7.6
		C430.88,75.98,428.75,73.76,427.36,71.45"/>
	<path class="st4" d="M426.48,68.06c0.53-2.33-0.65-8.22-2.23-10.51C423.73,60.29,425.05,66.15,426.48,68.06"/>
	<path class="st4" d="M426.24,61.67c0.74,2.56,0.7,3.88,0.79,6.17c0.58-1.1,0.75-8.9-0.07-10.43
		C426.71,58.35,426.27,60.73,426.24,61.67"/>
	<path class="st4" d="M428.87,67.23c-0.04,0.82,0,1.86,0.32,2.93c1.7,2.1,2.8,3.91,3.7,6.17C432.84,75.23,431.3,69.23,428.87,67.23"
		/>
	<path class="st4" d="M425.3,51.45c-0.74,1.46-0.95,5.56-0.28,7.35C425.82,57.06,425.94,52.96,425.3,51.45"/>
	<path class="st4" d="M423.39,51.53c-0.62,1.66-0.44,5.46,0.26,6.8C424.23,56.94,424.13,53.14,423.39,51.53"/>
	<path class="st4" d="M423.77,60.6c-0.5-1.04-0.82-1.73-1.36-2.34c-0.05,3.72,1.68,8.05,3.71,9.92
		C425.01,66.3,424.01,63.36,423.77,60.6"/>
	<path class="st4" d="M432.5,79.35c0.87,0.93,4.03,3.31,8.07,3.24c-2.08-0.6-4.28-1.57-5.98-2.82
		C433.68,79.49,433.17,79.35,432.5,79.35"/>
	<path class="st4" d="M427.01,68.54c0.66,2.7,3.7,7.04,5.62,8.43C431.95,74.83,429.07,70.07,427.01,68.54"/>
	<path class="st4" d="M433.16,77.53c1.4,1.83,5.55,4.52,7.51,4.7C439.54,80.61,435.45,77.83,433.16,77.53"/>
	<path class="st4" d="M424.45,45.68c-0.68,1.63-0.63,5.43,0,6.8C425.1,51.11,425.13,47.31,424.45,45.68"/>
	<path class="st4" d="M443.89,81.8c2.26,0.36,3.81,1.47,4.88,2V83.8c-0.39-0.9-2.76-3.69-7.18-4.18
		C442,80.28,442.77,81.22,443.89,81.8"/>
	<path class="st4" d="M452.15,87.76c0.24-0.19,0.48-0.37,0.72-0.55c-0.67-0.55-1.42-1.02-2.21-1.45L452.15,87.76z"/>
	<polygon class="st4" points="450.07,80.24 449.26,82.06 450.07,83.38 450.87,82.06 	"/>
	<path class="st4" d="M448.95,84.42c-1.59-0.96-5.04-2.31-7.68-2.13C442.52,83.19,446.49,84.54,448.95,84.42"/>
	<path class="st4" d="M444,84.25c-0.9,0.1-2.64,0.55-3.22,0.79c1.98,0.84,5.87,0.87,7.97-0.14C447.37,85.17,444.82,84.48,444,84.25"
		/>
	<path class="st4" d="M447.92,87.76l1.49-2c-0.78,0.43-1.54,0.9-2.21,1.45C447.44,87.38,447.67,87.57,447.92,87.76"/>
	<path class="st4" d="M434.59,76.21c0.14,0.48,0.25,0.85,0.85,1.54c0.83,0.25,4.76,3.24,5.44,4.07
		C439.95,80.07,436.83,76.78,434.59,76.21"/>
	<path class="st4" d="M430.85,41.77c3.52,1.59,6.83,3.54,10.05,5.22l0.02-0.02l0.01-0.01l0.01-0.02l0.02-0.02l0.02-0.02V46.9
		c0.02-0.03,0.05-0.08,0.05-0.08l0.03-0.04c0.01-0.02,0.03-0.03,0.03-0.03l0.02-0.02c0,0,0.06-0.07,0.09-0.1l0-0.01l0.02-0.02
		l0.03-0.03l0.01-0.01l0.02-0.01l0.01-0.01v0c0.04-0.04,0.07-0.08,0.12-0.12v0h0.01c0,0,0.08-0.07,0.12-0.1l0.03-0.02
		c0.08-0.05,0.16-0.11,0.26-0.16h0.01h0.01c0.07-0.04,0.14-0.07,0.22-0.1h0.01c0.07-0.03,0.16-0.05,0.16-0.05l0.09-0.02
		c0.03-0.01,0.05-0.02,0.05-0.02h0.03h0.01l0.01-0.01l0.09-0.02c0.09-0.02,0.19-0.03,0.29-0.04c-1.46-0.93-8.95-3.86-11.71-4.25
		c-0.06-0.02-0.16-0.05-0.16-0.05c-0.07,0.06-0.09,0.08-0.08,0.12L430.85,41.77z"/>
	<path class="st4" d="M457.38,45.9l0.04,0.01c0.06,0,0.13,0.01,0.19,0.02l0.14,0.03l0.08,0.02c0.48,0.12,0.83,0.37,1.08,0.68
		c0.02,0.03,0.05,0.05,0.05,0.05l0.03,0.03c0,0,0.03,0.04,0.04,0.05h0.01c0,0,0.05,0.08,0.08,0.11l0.01,0.01l0.02,0.02l0.01,0.02
		l0,0.02l0.01,0.01l0.02,0.02c3.21-1.68,6.53-3.62,10.05-5.22l0.05-0.06l-0.02-0.07c-0.03-0.04-0.07-0.04-0.11-0.03
		c0,0-0.08,0.01-0.12,0.02c-2.76,0.4-10.25,3.32-11.71,4.25L457.38,45.9z"/>
	<polygon class="st4" points="453.19,61.97 453.78,61.38 446.28,61.38 446.87,61.97 	"/>
	<path class="st4" d="M495.12,70.56c0.01-0.13,0.03-0.26,0.04-0.4l0-0.14c0.04-0.15-0.09-0.15-0.12-0.15h-2.29l-1.06-5.74h-6.8v5.14
		c0,3.15,0.15,6.52-0.28,9.73v-0.15c-0.38,2.99-1.25,5.86-3.18,8.32c-5.01,6.37-12.15,5.72-19.41,6.05
		c-4.68,0.21-9.83,2.3-12.05,6.82c-2.21-4.52-7.37-6.61-12.05-6.82c-7.25-0.33-14.4,0.32-19.41-6.05
		c-3.98-5.07-3.43-11.87-3.44-17.9v-5.14h-6.8l-1.06,5.74h-2.29c0,0-0.16-0.01-0.12,0.15l0,0.14c0.01,0.13,0.03,0.26,0.04,0.4
		c-0.75,6.56,1.7,17.03,3.26,19.84c-0.7-3.61-0.33-10.24-0.19-11.41l0.74,0l0.02-0.01c0.37,3.21,1.12,6.33,2.63,9.19
		c1.55,2.92,3.66,5.27,6.16,7.05c4.85,3.5,10.12,4.43,15.91,4.48c2.61,0.03,5.21,0.07,7.61,0.93c3.76,1.33,4.04,3.94,4.34,5.27
		c3.1,0.02,6.2,0.02,9.3,0c0.3-1.33,0.58-3.94,4.33-5.27c2.41-0.85,5-0.9,7.62-0.93c5.79-0.05,11.06-0.98,15.91-4.48
		c0.51-0.36,0.99-0.75,1.46-1.15v0.01c1.87-1.61,3.48-3.58,4.72-5.92c1.52-2.86,2.27-5.97,2.64-9.19l0.02,0.01l0.74,0
		c0.14,1.17,0.51,7.81-0.19,11.41C493.43,87.59,495.88,77.12,495.12,70.56 M405.09,70.13h2.11l-1.17,6.32
		C405.59,74.55,405.27,72.38,405.09,70.13 M406.64,78.72c-0.16-0.51-0.31-1.06-0.46-1.62l-0.01-0.01l2.13-11.62l0.08,4.41
		c-0.03,2.38-0.04,4.78,0.12,7.15l0.03,1.68L406.64,78.72z M417.94,93.09c-0.35-0.05-0.69-0.23-1.01-0.54
		c-0.41-0.38-0.64-0.76-0.69-1.14c-0.06-0.38,0.06-0.74,0.38-1.08c0.31-0.33,0.67-0.49,1.06-0.45c0.4,0.02,0.79,0.23,1.19,0.59
		c0.35,0.33,0.56,0.64,0.63,0.93c0.07,0.29,0,0.58-0.2,0.86l-0.03,0.04l-0.73-0.67c0.07-0.13,0.1-0.26,0.08-0.37
		c-0.03-0.13-0.09-0.24-0.21-0.33c-0.16-0.17-0.34-0.23-0.52-0.22c-0.19,0.02-0.37,0.12-0.55,0.31c-0.16,0.17-0.25,0.36-0.25,0.55
		c0,0.18,0.08,0.35,0.25,0.5c0.24,0.23,0.5,0.25,0.76,0.06l0.72,0.67l-0.02,0.02C418.57,93.06,418.29,93.15,417.94,93.09
		 M418.63,93.83l1.48-2.26l0.83,0.53l-1.47,2.27L418.63,93.83z M422.62,95.89c-0.31,0.04-0.69-0.04-1.13-0.27
		c-0.44-0.23-0.74-0.48-0.88-0.76c-0.15-0.27-0.13-0.58,0.04-0.93l0.75-1.48l0.86,0.45l-0.69,1.36c-0.1,0.18-0.12,0.33-0.09,0.46
		c0.04,0.13,0.14,0.25,0.32,0.33c0.33,0.18,0.59,0.09,0.77-0.27l0.69-1.37l0.85,0.43l-0.76,1.49
		C423.18,95.66,422.95,95.84,422.62,95.89 M426.36,96.89c-0.33,0.15-0.77,0.15-1.32-0.02l-1.48-0.42l0.75-2.6l1.51,0.43
		c0.52,0.15,0.87,0.38,1.09,0.67c0.2,0.3,0.25,0.66,0.13,1.09C426.92,96.46,426.68,96.76,426.36,96.89 M429.66,97.77l-0.15-0.45
		l-1.28-0.18l-0.28,0.39l-0.96-0.14l1.68-2.49l1.1,0.15l0.93,2.87L429.66,97.77z M433.95,97.59c-0.29,0.23-0.71,0.33-1.29,0.33
		l-1.54-0.04l0.04-2.69l1.57,0.02c0.54,0.02,0.95,0.13,1.23,0.37c0.29,0.24,0.41,0.57,0.41,1.01
		C434.38,97.04,434.23,97.37,433.95,97.59 M439.91,96.97c-0.04,0.44-0.22,0.75-0.52,0.97c-0.3,0.19-0.74,0.26-1.31,0.21l-1.52-0.16
		l0.28-2.69l1.56,0.17c0.53,0.05,0.93,0.21,1.18,0.47C439.85,96.19,439.96,96.55,439.91,96.97 M443.42,97.34l-1.51-0.46l-0.12,0.4
		l1.39,0.43l-0.17,0.57l-1.41-0.43l-0.12,0.4l1.54,0.47l-0.18,0.61l-2.48-0.76l0.79-2.59l2.45,0.75L443.42,97.34z M459.17,98.69
		l-1.58-1.31l0.5,1.63l-0.84,0.26l-0.8-2.58l1.2-0.36l1.51,1.25l-0.48-1.57l0.86-0.26l0.79,2.59L459.17,98.69z M461.04,98.26
		l-0.33-2.68l2.54-0.32l0.08,0.64l-1.57,0.19l0.05,0.41l1.46-0.18l0.08,0.61l-1.46,0.17l0.05,0.41l1.61-0.19l0.07,0.63L461.04,98.26
		z M466.61,97.7c-0.26,0.19-0.64,0.28-1.13,0.29c-0.5,0.01-0.88-0.07-1.14-0.25c-0.25-0.18-0.39-0.46-0.4-0.84l-0.03-1.66l0.97-0.02
		l0.03,1.53c0,0.2,0.05,0.36,0.05,0.36c0.18,0.19,0.33,0.24,0.52,0.24c0.38-0.01,0.56-0.21,0.55-0.62L466,95.21l0.95-0.02l0.03,1.68
		C466.99,97.23,466.87,97.5,466.61,97.7 M470.58,97.45l0.15-0.06c0.06-0.02,0.13-0.03,0.13-0.03s0.05,0.14-0.01,0.25
		c-0.05,0.11-0.07,0.21-0.07,0.21l-0.5,0.09c0,0-0.13-0.04-0.34-0.13c0,0-0.14,0.04-0.27,0.06c-0.1,0.02-0.17,0.03-0.17,0.03
		c-0.11,0.01-0.15,0.01-0.18,0.02c-0.54,0.03-0.96-0.05-1.29-0.28c-0.33-0.23-0.5-0.57-0.54-1.01c-0.03-0.44,0.1-0.81,0.39-1.08
		c0.29-0.27,0.7-0.44,1.24-0.47c0.53-0.05,0.97,0.05,1.29,0.28c0.33,0.23,0.51,0.56,0.54,1.01c0.03,0.44-0.11,0.8-0.39,1.07
		l-0.06,0.05L470.58,97.45z M474.39,96.86c-0.21,0.23-0.57,0.4-1.06,0.5c-0.48,0.09-0.87,0.07-1.16-0.05
		c-0.28-0.13-0.46-0.39-0.54-0.75l-0.31-1.64l0.94-0.18l0.28,1.51c0.04,0.19,0.12,0.33,0.23,0.41c0.1,0.08,0.25,0.11,0.44,0.06
		c0.37-0.07,0.52-0.31,0.44-0.69l-0.29-1.5l0.94-0.19l0.32,1.65C474.69,96.34,474.62,96.63,474.39,96.86 M475.69,96.65l-0.93-2.54
		l2.41-0.87l0.21,0.6l-1.48,0.53l0.15,0.39l1.37-0.5l0.2,0.57l-1.37,0.49l0.15,0.39l1.51-0.55l0.22,0.6L475.69,96.65z M480.78,94.23
		l-1.87-0.85l0.91,1.45l-0.75,0.47l-1.43-2.28l1.06-0.68l1.78,0.82l-0.87-1.39l0.76-0.47l1.43,2.29L480.78,94.23z M493.94,77.09
		c0.03-0.1,0.05-0.2,0.08-0.32v0.01C493.99,76.89,493.97,76.99,493.94,77.09 M492.79,70.13h2.1c-0.17,2.25-0.49,4.42-0.94,6.32
		L492.79,70.13z M491.44,78.72l0.03-1.68c0.16-2.37,0.15-4.78,0.12-7.15l0.08-4.41l2.12,11.62v0.01c-0.15,0.56-0.3,1.12-0.46,1.62
		L491.44,78.72z"/>
	<path class="st4" d="M452.64,28.21l0.02,0.01l0.01,0.01c0.33,0.3,0.36,0.63,0.38,0.79l0,0.03l0.01,0.01l0.66,5.46
		c2.65-1.35,4.47-4.1,4.47-7.26c0-4.48-3.66-8.13-8.14-8.13c-4.49,0-8.13,3.65-8.13,8.13c0,3.18,1.83,5.94,4.5,7.28l0.67-5.49v-0.02
		l0.01-0.04c0.03-0.15,0.07-0.45,0.33-0.72c0.03-0.02,0.05-0.04,0.05-0.04c0-0.24,0.1-0.46,0.28-0.6l1.89-1.44
		c0.23-0.17,0.56-0.18,0.79-0.01l1.96,1.44C452.56,27.77,452.65,27.99,452.64,28.21"/>
	<path class="st4" d="M432.24,90.68h9.72c4.19,0,5.86,1.05,6.52,2.16c0.53,0.89,0.43,1.83,0.46,2.71h2.19
		c0.02-0.89-0.06-1.8,0.37-2.64c0.62-1.18,2.26-2.24,6.63-2.24h9.69c4.07,0,7.78-1.65,10.45-4.3c2.69-2.65,4.35-6.33,4.35-10.36
		V9.37V9.12h-0.25h-64.69h-0.25v0.25v66.64c0,4.04,1.67,7.7,4.35,10.36C424.47,89.02,428.17,90.68,432.24,90.68 M421.09,81.98
		c-0.15-0.28-0.28-0.55-0.41-0.82c-0.12-0.27-0.24-0.55-0.35-0.83c-0.11-0.32-0.21-0.62-0.28-0.9c-0.09-0.29-0.16-0.6-0.24-0.9
		c-0.06-0.31-0.1-0.62-0.14-0.92c-0.04-0.31-0.08-0.63-0.1-0.95l-0.01-28.98c1.02-0.02,2.31,0.01,3.67,0.12
		c0.03-0.21,0.05-0.43,0.09-0.63h-3.76l-0.01-35.95h60.96l-0.01,35.95h-4.01c0.04,0.19,0.06,0.39,0.08,0.59
		c1.19-0.17,2.5-0.25,3.93-0.21l0,29.12c-0.03,0.33-0.06,0.64-0.1,0.95c-0.05,0.31-0.1,0.61-0.14,0.92
		c-0.08,0.33-0.15,0.62-0.24,0.9c-0.09,0.28-0.18,0.58-0.29,0.9c-0.12,0.29-0.23,0.57-0.36,0.83c-0.12,0.27-0.26,0.55-0.4,0.82
		c-0.15,0.26-0.31,0.53-0.48,0.79c-0.16,0.25-0.33,0.5-0.51,0.75c-0.2,0.25-0.4,0.49-0.59,0.69c-0.19,0.23-0.4,0.45-0.61,0.67
		c-0.39,0.37-0.77,0.69-1.16,0.99c-0.4,0.31-0.8,0.6-1.24,0.88c-0.27,0.15-0.54,0.29-0.82,0.44c-0.27,0.14-0.55,0.27-0.82,0.39
		c-0.3,0.12-0.6,0.23-0.88,0.32c-0.29,0.09-0.58,0.19-0.89,0.27c-0.31,0.08-0.62,0.15-0.93,0.2c-0.32,0.06-0.63,0.1-0.94,0.15
		l-1.33,0.06l-10.4,0.01h-0.01c-0.34,0.01-0.68,0.03-1,0.06c-0.33,0.03-0.67,0.05-1,0.09h-0.01c-0.46,0.07-0.9,0.15-1.34,0.25
		c-0.44,0.1-0.87,0.22-1.31,0.37l-0.02,0.01c-0.3,0.12-0.57,0.25-0.83,0.38c-0.26,0.14-0.52,0.3-0.77,0.47l-0.01,0.01
		c-0.26,0.21-0.49,0.41-0.7,0.63c-0.14,0.14-0.25,0.29-0.37,0.44c-0.32-0.42-0.7-0.78-1.13-1.08c-0.51-0.36-1.09-0.64-1.68-0.89
		h-0.02c-0.27-0.1-0.55-0.18-0.82-0.25c-0.28-0.09-0.55-0.15-0.83-0.21h-0.01c-0.6-0.1-1.19-0.17-1.77-0.22
		c-0.58-0.05-1.17-0.07-1.78-0.08l-10.38-0.02c-0.33-0.02-0.65-0.06-0.96-0.1c-0.3-0.04-0.62-0.08-0.95-0.14
		c-0.31-0.06-0.61-0.15-0.9-0.23c-0.3-0.08-0.59-0.17-0.89-0.27c-0.29-0.12-0.58-0.25-0.85-0.36c-0.28-0.13-0.55-0.26-0.84-0.4
		c-0.26-0.15-0.51-0.31-0.78-0.47c-0.25-0.16-0.5-0.32-0.77-0.51c-0.24-0.2-0.47-0.39-0.7-0.58c-0.23-0.2-0.45-0.39-0.68-0.61
		c-0.22-0.23-0.42-0.45-0.62-0.67c-0.19-0.21-0.39-0.45-0.59-0.69c-0.18-0.25-0.34-0.5-0.51-0.75
		C421.41,82.51,421.24,82.25,421.09,81.98"/>
	<path class="st4" d="M450,26.63l-1.61,1.24L448.35,28c0.02,0.05,0.06,0.08,0.11,0.08h3.31c0.05,0,0.09-0.03,0.11-0.08
		c0.02-0.05,0-0.1,0-0.1l-1.73-1.26H450z M448.8,27.84l1.27-0.98l1.34,0.98H448.8z"/>
	<path class="st4" d="M433.93,53.73c0.53,2.84-2.28,5.71-0.01,8.42c0.29,0.34,0.64,0.65,1.05,0.96l-0.79,0.78
		c-0.33-0.33-0.65-0.65-0.93-0.97c-1.4-1.55-1.08-3.18-0.66-4.77c0.83-3.11,1.09-5.39-1.79-7.5c-1.5-1.09-3.45-1.83-5.3-2.21
		c0.03,0.61,0.02,1.24-0.03,1.93v0.01c0.51,0.26,0.98,0.57,1.36,0.94c1.78,1.7,1.19,3.87,0.63,6.23c0,0-0.01,0.06-0.02,0.08
		c0.49,1.57,0.66,4.24,0.61,6.5c1.06,2.03,2.93,3.62,5.07,5.24l-0.02,0.33c0,0,0.03,0.1,0.08,0.12l0.04,0.02
		c0.05,0,0.09-0.02,0.09-0.02l0.18-0.18c0.7,0.53,1.44,1.07,2.18,1.64c2.89,2.19,5.6,4.51,6.96,7.95c2.81,0.55,4.73,1.98,5.76,3.1
		c0.24,0.24,0.42,0.47,0.56,0.68c0.15,0.22,0.27,0.42,0.34,0.59l0.16,0.36l0.35,0.07l-0.21-0.35l-0.81-1.3l-0.15-0.25l0.12-0.27
		l0.8-1.83l0.52-1.18l0.51,1.18l0.81,1.83l0.12,0.27l-0.15,0.25l-0.81,1.3L450.34,84l0.29-0.06l0.15-0.36h0.01
		c0.07-0.16,0.18-0.37,0.34-0.59c0.14-0.2,0.32-0.44,0.56-0.68c1.03-1.12,2.96-2.55,5.77-3.1c1.36-3.44,4.07-5.75,6.95-7.95
		c1.36-1.03,2.69-1.99,3.89-2.97c0.28-0.09,0.54-0.31,0.7-0.59c1.24-1.08,2.29-2.21,3-3.53c-0.13-2.28-0.09-4.57,0.62-6.69
		c-0.56-2.34-1.14-4.49,0.64-6.18c0.38-0.36,0.85-0.68,1.36-0.94l0-0.01c-0.06-0.57-0.06-1.09-0.06-1.6
		c-1.51,0.4-3.02,0.99-4.23,1.88c-2.89,2.11-2.63,4.39-1.8,7.5c0.43,1.59,0.76,3.31-0.73,4.77c-0.41,0.4-0.87,0.81-1.37,1.24
		l-0.76-0.7c0.57-0.42,1.06-0.84,1.46-1.3c2.27-2.71-0.54-5.58-0.01-8.42c0.44-2.4,3.04-4.14,5.75-5.1c0.54-0.19,1.11-0.35,1.71-0.5
		c0.03-0.33,0.07-0.65,0.12-0.96h-15.43c0.04,0.06,0.07,0.13,0.09,0.2c-0.49,0.58-1.21,1.1-2.1,1.55c0.1-0.49,0.15-1.01,0.15-1.55
		c0-0.06,0-0.13,0-0.2h-2.55l1.58-1.71c0.85-0.89,1.63-1.75,2.35-2.56l4.3-4.66l0.37,0.37c0.16,0.15,0.35,0.23,0.56,0.23
		c0.22,0,0.41-0.08,0.55-0.22l0.03-0.03l3.06-5.4c0.03-0.05,0.02-0.12-0.02-0.16c-0.04-0.04-0.11-0.05-0.16-0.02l-5.33,3.1
		l-0.03,0.02c-0.15,0.14-0.23,0.34-0.23,0.56c0,0.2,0.09,0.4,0.23,0.55l0.34,0.34l-7.79,8.58l-2.06-17l-0.01-0.04
		c-0.02-0.14-0.04-0.3-0.21-0.47c-0.15-0.13-0.33-0.2-0.52-0.2h-3.4c-0.22,0-0.43,0.09-0.58,0.24c-0.14,0.14-0.17,0.31-0.19,0.43
		l-1.93,15.88l-12.82-11.91c-0.05-0.05-0.12-0.05-0.18-0.01c0,0-0.06,0.11-0.04,0.17c2.32,4.72,6.54,9.64,11.94,13.92h-1.97v0.03
		c0,0-0.01,0.03-0.01,0.05c0,0,0,0.09,0,0.13c0,0.52,0.04,1.02,0.13,1.48c-0.81-0.43-1.5-0.94-2.07-1.54
		c0.03-0.05,0.05-0.11,0.05-0.11l0.05-0.05l-15.69,0.01c0.04,0.28,0.08,0.57,0.1,0.86C429.19,48.63,433.27,50.16,433.93,53.73
		 M436.87,66.27l1.06-1.05c1.58,1.17,3.38,2.54,5.22,4.03c-0.22,0.02-0.51,0.09-0.75,0.33c-0.17,0.18-0.27,0.41-0.31,0.7
		C440.31,68.94,438.5,67.6,436.87,66.27 M450.12,55.99h-0.05c-4.09-0.01-7.89-1.19-9.91-3.02c-0.06-0.41-0.11-0.84-0.13-1.27
		c2.1,1.84,5.93,3.01,10.04,3.02h0.05c3.87,0,8.04-1.28,9.9-3c-0.03,0.44-0.07,0.85-0.14,1.27
		C458.17,54.67,453.93,55.99,450.12,55.99 M455.71,56.74h-11.36l0.16-1.16c1.68,0.49,3.59,0.75,5.56,0.77h0.05
		c1.84,0,3.75-0.3,5.44-0.79L455.71,56.74z M442.56,57.13h14.78v0.43h-14.78V57.13z M443.09,57.94h13.87v0.42h-13.87V57.94z
		 M442.36,70.31c0.02-0.25,0.1-0.46,0.24-0.59c0.22-0.22,0.53-0.26,0.7-0.26h13.47c0.17,0,0.48,0.03,0.7,0.26
		c0.14,0.13,0.22,0.34,0.24,0.59H442.36z M457.85,70.75c0.15,0.2,0.36,0.33,0.59,0.34v0.1h-16.82v-0.1c0.23-0.01,0.45-0.14,0.6-0.34
		H457.85z M455.94,68.75c0.15,0,0.28,0.13,0.3,0.27h-12.42c0.02-0.14,0.15-0.27,0.31-0.27H455.94z M444.19,60.1h11.7v8.4h-11.7V60.1
		z M443.81,59.4h12.45v0.43h-12.45V59.4z M443.45,58.72h13.16v0.41h-13.16V58.72z M450.05,76.83c-0.87-0.92-1.92-1.87-3.09-2.83
		h1.66c0.49,0.48,0.98,0.94,1.45,1.42c0.18-0.15,0.82-0.68,1.74-1.42h1.5C452.12,74.95,451.01,75.89,450.05,76.83 M459.89,73.69
		h-19.72v-1.81c0.08,0.01,0.16,0.02,0.24,0.02c0.39,0,0.91-0.07,1.14-0.27h16.97c0.19,0.17,0.62,0.27,1.14,0.27
		c0.07,0,0.16-0.01,0.24-0.02V73.69z M457.98,70.48c0.01-0.38-0.1-0.69-0.32-0.91c-0.05-0.05-0.1-0.08-0.1-0.08
		c0.97-0.84,1.99-1.63,2.91-2.34c0.17,0.37,0.4,0.72,0.7,1.03C460.13,68.94,459.05,69.71,457.98,70.48 M463.03,59.45
		c0-0.42,0.34-0.76,0.77-0.76c0.42,0,0.76,0.34,0.76,0.76c0,0.36-0.25,0.66-0.58,0.74l-0.57,0.51c-0.15,0.14-0.3,0.29-0.44,0.43
		l5.19,4.81c0.23-0.27,0.43-0.56,0.6-0.85l0.19,0.28c-0.15,0.28-0.35,0.54-0.54,0.79l0.38,0.36c0.81,0.75-0.5,2.28-1.35,1.45
		l-0.37-0.35c-2.13,2.03-4.26,1.94-5.61,0.65c-1.97-1.89-1.1-4.21,0.09-5.95l-4.34-4.16v-0.23h0.38v-1.2H456l-0.18-1.26
		c0.26-0.08,0.52-0.16,0.77-0.25l6.1,5.64c0.29-0.32,0.54-0.58,0.72-0.76C463.18,59.99,463.03,59.73,463.03,59.45 M445.7,47.26
		v-0.02h0.01l2.18-18.06l0.01-0.03c0.02-0.12,0.03-0.22,0.12-0.31c0.11-0.11,0.26-0.17,0.42-0.17h3.39
		c0.14,0.01,0.27,0.05,0.37,0.15c0.12,0.11,0.13,0.21,0.14,0.32l2.02,16.75l0.06,0.51l0.02,0.22c0.03,0.34,0.08,0.61,0.08,0.61
		l0.32,2.58c-1.44,0.39-3.06,0.61-4.71,0.61h-0.05c-1.74,0-3.33-0.2-4.74-0.59L445.7,47.26z M440.61,47.7
		c2.02,1.98,5.35,3.07,9.46,3.08h0.04c3.91,0,7.53-1.17,9.28-2.93c0.17,0.48,0.3,1,0.39,1.53c0,0-0.11,0.13-0.18,0.19
		c-0.53,0.48-1.18,0.92-1.94,1.29c-1.98,0.95-4.77,1.55-7.53,1.55h-0.05c-1.76,0-3.43-0.2-4.92-0.57l-0.12-0.03
		c-0.05-0.01-0.11-0.03-0.11-0.03c-2.04-0.54-3.69-1.37-4.73-2.41C440.28,48.78,440.43,48.22,440.61,47.7 M440,51.18
		c0-0.49,0.03-0.95,0.09-1.41c1.99,1.85,5.75,2.98,9.98,3h0.04c3.94,0,7.81-1.16,9.61-2.82c0.07-0.06,0.16-0.13,0.22-0.2
		c0.06,0.46,0.09,0.94,0.09,1.43v0.03c-0.16,0.17-0.33,0.34-0.53,0.5c-1.91,1.52-5.83,2.67-9.38,2.67h-0.05
		c-4.13-0.01-7.97-1.22-9.97-3.08L440,51.18L440,51.18z M439.13,61.1l3.24-3.17h0.48v0.25l-3.38,3.4l-0.22,2.13l-6.02,5.97
		l0.15-2.52l-2.49,0.16l6.03-5.97L439.13,61.1z"/>
	<polygon class="st4" points="525.72,48.56 525.81,48.56 532.67,31.11 536.29,31.11 536.29,52.59 533.38,52.59 533.38,36.49 
		533.29,36.48 526.79,52.59 524.77,52.59 518.07,35.95 517.98,35.96 517.98,52.59 515.07,52.59 515.07,31.11 518.89,31.11 	"/>
	<path class="st4" d="M551.06,50.23c-0.5,0.86-1.15,1.51-1.93,1.98c-0.79,0.46-1.7,0.69-2.73,0.69c-1.74,0-3.1-0.56-4.07-1.67
		c-0.97-1.11-1.46-2.84-1.46-5.19v-9.41h2.91v9.44c0,1.7,0.25,2.87,0.75,3.51c0.5,0.64,1.28,0.96,2.35,0.96
		c1.03,0,1.89-0.21,2.56-0.63c0.67-0.42,1.18-1.01,1.53-1.78V36.62h2.91v15.96h-2.61L551.06,50.23z"/>
	<path class="st4" d="M560.69,36.62l0.21,2.38c0.53-0.85,1.2-1.5,2-1.97c0.8-0.47,1.71-0.7,2.74-0.7c1.72,0,3.05,0.5,4,1.51
		c0.95,1.01,1.42,2.56,1.42,4.67v10.08h-2.91V42.57c0-1.41-0.28-2.41-0.83-3c-0.56-0.59-1.4-0.89-2.54-0.89
		c-0.89,0-1.65,0.18-2.28,0.54c-0.62,0.36-1.12,0.86-1.48,1.51v11.85h-2.91V36.62H560.69z"/>
	<path class="st4" d="M578.41,32.54h-2.91v-2.97h2.91V32.54z M578.41,52.59h-2.91V36.62h2.91V52.59z"/>
	<path class="st4" d="M589.22,50.62c0.9,0,1.68-0.3,2.35-0.89c0.67-0.59,1-1.32,1-2.19h2.62l0.04,0.09c0.04,1.38-0.55,2.6-1.77,3.67
		c-1.22,1.07-2.63,1.6-4.25,1.6c-2.24,0-3.97-0.76-5.19-2.29c-1.22-1.52-1.83-3.42-1.83-5.69v-0.62c0-2.25,0.61-4.14,1.84-5.67
		c1.22-1.53,2.95-2.29,5.19-2.29c1.78,0,3.24,0.55,4.37,1.65c1.14,1.1,1.68,2.45,1.64,4.06l-0.03,0.09h-2.64
		c0-0.97-0.32-1.8-0.95-2.49c-0.64-0.68-1.43-1.03-2.4-1.03c-1.43,0-2.47,0.55-3.12,1.66c-0.65,1.11-0.98,2.45-0.98,4.02v0.62
		c0,1.6,0.32,2.96,0.96,4.06C586.73,50.07,587.77,50.62,589.22,50.62"/>
	<path class="st4" d="M601.83,32.54h-2.91v-2.97h2.91V32.54z M601.83,52.59h-2.91V36.62h2.91V52.59z"/>
	<path class="st4" d="M619.91,45.21c0,2.3-0.55,4.16-1.65,5.57c-1.1,1.41-2.62,2.12-4.56,2.12c-0.98,0-1.85-0.16-2.59-0.49
		c-0.74-0.33-1.37-0.82-1.89-1.48v7.8h-2.91v-22.1h2.23l0.46,2.07c0.52-0.77,1.17-1.35,1.95-1.76s1.68-0.6,2.71-0.6
		c1.98,0,3.51,0.78,4.61,2.35c1.1,1.57,1.64,3.64,1.64,6.22V45.21z M617,44.9c0-1.81-0.36-3.3-1.07-4.46
		c-0.71-1.17-1.76-1.75-3.15-1.75c-0.84,0-1.55,0.19-2.14,0.57c-0.59,0.38-1.07,0.9-1.43,1.56v7.72c0.36,0.66,0.84,1.17,1.43,1.54
		c0.59,0.37,1.31,0.55,2.17,0.55c1.38,0,2.42-0.5,3.13-1.51c0.71-1.01,1.06-2.31,1.06-3.9V44.9z"/>
	<path class="st4" d="M633.28,52.59c-0.1-0.48-0.17-0.91-0.23-1.28c-0.05-0.37-0.09-0.74-0.1-1.11c-0.54,0.77-1.25,1.41-2.12,1.92
		c-0.87,0.52-1.81,0.77-2.81,0.77c-1.66,0-2.93-0.43-3.8-1.28c-0.87-0.85-1.31-2.02-1.31-3.52c0-1.52,0.62-2.72,1.85-3.58
		c1.24-0.86,2.91-1.29,5.02-1.29h3.16v-1.58c0-0.93-0.29-1.68-0.86-2.22c-0.57-0.55-1.38-0.82-2.42-0.82
		c-0.95,0-1.71,0.24-2.29,0.71c-0.58,0.47-0.87,1.04-0.87,1.69l-2.76,0.03l-0.03-0.09c-0.07-1.16,0.47-2.22,1.63-3.19
		c1.15-0.96,2.65-1.45,4.48-1.45c1.81,0,3.26,0.46,4.37,1.38c1.1,0.92,1.65,2.25,1.65,3.98v7.69c0,0.57,0.03,1.12,0.09,1.65
		c0.06,0.53,0.17,1.05,0.33,1.56H633.28z M628.46,50.46c1.05,0,2-0.27,2.85-0.81c0.85-0.54,1.4-1.16,1.65-1.86v-2.6h-3.26
		c-1.17,0-2.11,0.29-2.81,0.88c-0.7,0.59-1.05,1.28-1.05,2.08c0,0.71,0.22,1.27,0.66,1.68C626.94,50.26,627.59,50.46,628.46,50.46"
		/>
	<rect x="640.32" y="29.57" class="st4" width="2.91" height="23.01"/>
	<path class="st4" d="M650.84,32.54h-2.91v-2.97h2.91V32.54z M650.84,52.59h-2.91V36.62h2.91V52.59z"/>
	<path class="st4" d="M654.65,44.9c0-2.57,0.55-4.64,1.64-6.21c1.1-1.58,2.63-2.36,4.61-2.36c0.93,0,1.76,0.17,2.49,0.52
		c0.72,0.34,1.34,0.85,1.85,1.5v-8.78h2.91v23.01h-2.23l-0.44-2.02c-0.52,0.77-1.17,1.35-1.93,1.74c-0.77,0.39-1.66,0.59-2.67,0.59
		c-1.95,0-3.47-0.71-4.57-2.12c-1.1-1.41-1.65-3.27-1.65-5.57V44.9z M657.55,45.21c0,1.61,0.33,2.9,0.99,3.87
		c0.66,0.97,1.68,1.45,3.07,1.45c0.87,0,1.59-0.2,2.18-0.59c0.59-0.39,1.07-0.94,1.44-1.65v-7.45c-0.37-0.66-0.86-1.18-1.45-1.57
		c-0.59-0.39-1.31-0.58-2.15-0.58c-1.4,0-2.43,0.57-3.09,1.73c-0.66,1.15-0.99,2.65-0.99,4.48V45.21z"/>
	<path class="st4" d="M682.29,52.59c-0.1-0.48-0.17-0.91-0.23-1.28c-0.05-0.37-0.09-0.74-0.1-1.11c-0.54,0.77-1.25,1.41-2.12,1.92
		c-0.87,0.52-1.8,0.77-2.81,0.77c-1.66,0-2.93-0.43-3.8-1.28c-0.87-0.85-1.3-2.02-1.3-3.52c0-1.52,0.62-2.72,1.85-3.58
		c1.23-0.86,2.91-1.29,5.02-1.29h3.16v-1.58c0-0.93-0.29-1.68-0.86-2.22c-0.57-0.55-1.38-0.82-2.42-0.82
		c-0.94,0-1.71,0.24-2.29,0.71c-0.58,0.47-0.87,1.04-0.87,1.69l-2.76,0.03l-0.03-0.09c-0.07-1.16,0.48-2.22,1.63-3.19
		c1.16-0.96,2.65-1.45,4.48-1.45c1.81,0,3.27,0.46,4.37,1.38c1.1,0.92,1.65,2.25,1.65,3.98v7.69c0,0.57,0.03,1.12,0.09,1.65
		c0.06,0.53,0.17,1.05,0.33,1.56H682.29z M677.47,50.46c1.05,0,2-0.27,2.85-0.81c0.85-0.54,1.4-1.16,1.65-1.86v-2.6h-3.26
		c-1.17,0-2.11,0.29-2.81,0.88c-0.7,0.59-1.05,1.28-1.05,2.08c0,0.71,0.22,1.27,0.66,1.68C675.95,50.26,676.6,50.46,677.47,50.46"/>
	<path class="st4" d="M688.43,44.9c0-2.57,0.55-4.64,1.64-6.21c1.1-1.58,2.63-2.36,4.61-2.36c0.93,0,1.76,0.17,2.49,0.52
		c0.72,0.34,1.34,0.85,1.85,1.5v-8.78h2.91v23.01h-2.23l-0.44-2.02c-0.52,0.77-1.17,1.35-1.93,1.74c-0.77,0.39-1.66,0.59-2.67,0.59
		c-1.95,0-3.47-0.71-4.57-2.12c-1.1-1.41-1.65-3.27-1.65-5.57V44.9z M691.34,45.21c0,1.61,0.33,2.9,0.99,3.87s1.68,1.45,3.07,1.45
		c0.87,0,1.59-0.2,2.18-0.59c0.59-0.39,1.07-0.94,1.44-1.65v-7.45c-0.37-0.66-0.86-1.18-1.45-1.57c-0.59-0.39-1.31-0.58-2.15-0.58
		c-1.4,0-2.42,0.57-3.09,1.73c-0.66,1.15-0.99,2.65-0.99,4.48V45.21z"/>
	<path class="st4" d="M514.01,70.08c0-2.57,0.55-4.64,1.64-6.21c1.1-1.58,2.63-2.36,4.61-2.36c0.93,0,1.76,0.17,2.49,0.52
		c0.72,0.34,1.34,0.85,1.85,1.5v-8.78h2.91v23.01h-2.23l-0.44-2.02c-0.52,0.77-1.17,1.35-1.93,1.74c-0.77,0.39-1.66,0.59-2.67,0.59
		c-1.95,0-3.47-0.71-4.57-2.12c-1.1-1.41-1.65-3.27-1.65-5.57V70.08z M516.92,70.39c0,1.61,0.33,2.9,0.99,3.87
		c0.66,0.97,1.68,1.45,3.07,1.45c0.86,0,1.59-0.2,2.18-0.59c0.59-0.39,1.07-0.94,1.45-1.65v-7.45c-0.37-0.66-0.86-1.18-1.45-1.57
		s-1.31-0.58-2.15-0.58c-1.4,0-2.43,0.57-3.09,1.73c-0.66,1.15-0.99,2.65-0.99,4.48V70.39z"/>
	<path class="st4" d="M538.46,78.07c-2.29,0-4.08-0.73-5.36-2.2c-1.28-1.47-1.93-3.39-1.93-5.78v-0.65c0-2.29,0.66-4.19,1.99-5.69
		c1.32-1.5,2.94-2.25,4.85-2.25c2.13,0,3.73,0.66,4.8,1.99c1.07,1.33,1.6,3.09,1.6,5.3v1.53h-10.21l-0.04,0.07
		c0,1.6,0.35,2.9,1.06,3.9c0.71,1,1.79,1.5,3.24,1.5c0.98,0,1.85-0.14,2.59-0.42c0.74-0.28,1.38-0.67,1.91-1.16l1.13,1.89
		c-0.57,0.55-1.32,1.02-2.26,1.39C540.9,77.88,539.77,78.07,538.46,78.07 M538,63.79c-1.01,0-1.85,0.39-2.52,1.17
		c-0.66,0.78-1.07,1.78-1.22,3l0.03,0.07h7.2v-0.24c0-1.16-0.29-2.12-0.86-2.88C540.07,64.17,539.19,63.79,538,63.79"/>
	<polygon class="st4" points="572.42,77.76 568.11,77.76 559.45,63.28 559.36,63.29 559.36,77.76 555.05,77.76 555.05,56.28 
		559.36,56.28 568.02,70.76 568.11,70.74 568.11,56.28 572.42,56.28 	"/>
	<path class="st4" d="M582.96,78.07c-2.38,0-4.24-0.73-5.58-2.19c-1.34-1.46-2.01-3.34-2.01-5.64v-0.59c0-2.39,0.65-4.35,1.95-5.87
		c1.3-1.52,3.09-2.28,5.36-2.27c2.14,0,3.79,0.66,4.93,1.97c1.15,1.31,1.72,3.08,1.72,5.3v2.23h-9.52l-0.04,0.09
		c0.07,1.09,0.4,1.98,1,2.66c0.59,0.68,1.48,1.02,2.65,1.02c0.96,0,1.78-0.1,2.46-0.3c0.67-0.2,1.37-0.5,2.09-0.9l1.17,2.66
		c-0.64,0.52-1.5,0.96-2.6,1.31C585.44,77.9,584.25,78.07,582.96,78.07 M582.68,64.83c-0.86,0-1.53,0.3-2,0.89
		c-0.47,0.59-0.75,1.38-0.85,2.37l0.03,0.07h5.25v-0.33c0-0.93-0.19-1.67-0.57-2.2C584.16,65.09,583.54,64.83,582.68,64.83"/>
	<path class="st4" d="M601.63,75.4c-0.49,0.86-1.12,1.51-1.88,1.98c-0.76,0.46-1.64,0.69-2.64,0.69c-1.68,0-3-0.57-3.95-1.71
		c-0.95-1.14-1.42-2.91-1.42-5.31V61.8h4.29v9.28c0,1.4,0.19,2.35,0.57,2.87c0.38,0.52,0.97,0.77,1.76,0.77
		c0.69,0,1.28-0.11,1.77-0.33c0.49-0.22,0.89-0.55,1.21-0.98V61.8h4.31v15.96h-3.57L601.63,75.4z"/>
	<path class="st4" d="M608.24,69.92c0-2.52,0.54-4.55,1.63-6.09c1.09-1.54,2.62-2.32,4.6-2.32c0.89,0,1.66,0.19,2.33,0.58
		c0.67,0.39,1.24,0.95,1.73,1.67l0.4-1.96h3.66v22.1h-4.31v-7.63c-0.47,0.59-1.02,1.04-1.66,1.34c-0.64,0.3-1.36,0.46-2.18,0.46
		c-1.96,0-3.48-0.72-4.57-2.15c-1.09-1.44-1.63-3.33-1.63-5.69V69.92z M612.53,70.23c0,1.4,0.24,2.5,0.71,3.32
		c0.47,0.82,1.24,1.22,2.3,1.22c0.63,0,1.17-0.12,1.62-0.35c0.45-0.24,0.82-0.58,1.1-1.03V66.3c-0.28-0.47-0.65-0.83-1.1-1.09
		c-0.45-0.25-0.98-0.38-1.6-0.38c-1.05,0-1.82,0.47-2.31,1.42c-0.49,0.95-0.73,2.17-0.73,3.67V70.23z"/>
	<path class="st4" d="M635.73,75.4c-0.49,0.86-1.12,1.51-1.88,1.98c-0.76,0.46-1.64,0.69-2.64,0.69c-1.68,0-3-0.57-3.95-1.71
		c-0.95-1.14-1.42-2.91-1.42-5.31V61.8h4.29v9.28c0,1.4,0.19,2.35,0.57,2.87c0.38,0.52,0.97,0.77,1.76,0.77
		c0.69,0,1.28-0.11,1.77-0.33c0.49-0.22,0.89-0.55,1.21-0.98V61.8h4.31v15.96h-3.57L635.73,75.4z"/>
	<path class="st4" d="M649.92,78.07c-2.38,0-4.24-0.73-5.58-2.19c-1.34-1.46-2-3.34-2-5.64v-0.59c0-2.39,0.65-4.35,1.95-5.87
		c1.3-1.52,3.08-2.28,5.36-2.27c2.14,0,3.79,0.66,4.94,1.97c1.15,1.31,1.72,3.08,1.72,5.3v2.23h-9.52l-0.05,0.09
		c0.07,1.09,0.4,1.98,1,2.66c0.6,0.68,1.48,1.02,2.65,1.02c0.96,0,1.78-0.1,2.46-0.3c0.67-0.2,1.37-0.5,2.09-0.9l1.17,2.65
		c-0.64,0.52-1.5,0.96-2.6,1.31C652.4,77.9,651.21,78.07,649.92,78.07 M649.65,64.83c-0.86,0-1.53,0.3-2,0.89s-0.75,1.38-0.85,2.37
		l0.03,0.07h5.25v-0.33c0-0.93-0.19-1.67-0.57-2.2C651.12,65.09,650.5,64.83,649.65,64.83 M650.16,54.97h4.79l0.03,0.09l-4.09,3.83
		h-3.67L650.16,54.97z"/>
	<path class="st4" d="M662.74,61.8l0.19,2.29c0.53-0.82,1.18-1.45,1.96-1.9c0.78-0.45,1.65-0.68,2.61-0.68
		c1.61,0,2.87,0.52,3.78,1.56c0.9,1.04,1.36,2.68,1.36,4.92v9.78h-4.32V68c0-1.14-0.2-1.95-0.6-2.43c-0.4-0.48-1-0.72-1.79-0.72
		c-0.64,0-1.2,0.12-1.69,0.36c-0.48,0.24-0.89,0.57-1.2,1v11.55h-4.31V61.8H662.74z"/>
</g>
</svg>
